<?xml version="1.0" standalone="no"?>
<!DOCTYPE svg PUBLIC "-//W3C//DTD SVG 20010904//EN"
 "http://www.w3.org/TR/2001/REC-SVG-20010904/DTD/svg10.dtd">
<svg version="1.0" xmlns="http://www.w3.org/2000/svg"
 width="24.000000pt" height="24.000000pt" viewBox="0 0 24.000000 24.000000"
 preserveAspectRatio="xMidYMid meet">

<g transform="translate(0.000000,24.000000) scale(0.100000,-0.100000)"
fill="#000000" stroke="none">
<path d="M61 174 c-46 -58 -11 -134 60 -134 45 0 82 37 82 80 0 73 -98 110
-142 54z m89 2 c0 -8 7 -16 15 -20 18 -7 20 -37 3 -54 -7 -7 -22 -12 -35 -12
-13 0 -23 -6 -23 -14 0 -9 -7 -12 -20 -9 -11 3 -18 9 -15 13 3 5 0 10 -7 12
-9 3 -8 9 5 22 9 10 17 28 17 41 0 13 6 26 13 28 24 10 47 7 47 -7z"/>
<path d="M115 139 c-4 -6 -1 -15 6 -20 21 -13 31 -11 27 8 -4 20 -24 28 -33
12z"/>
</g>
</svg>
